<?xml version="1.0" encoding="UTF-8"?>
<svg xmlns="http://www.w3.org/2000/svg" xmlns:xlink="http://www.w3.org/1999/xlink" width="37pt" height="37pt" viewBox="0 0 37 37" version="1.1">
<g id="surface1">
<path style=" stroke:none;fill-rule:nonzero;fill:rgb(0%,0%,0%);fill-opacity:1;" d="M 36.425781 20.964844 L 27.878906 12.417969 L 27.878906 6.78125 C 27.878906 6.074219 27.308594 5.503906 26.605469 5.503906 C 25.902344 5.503906 25.332031 6.074219 25.332031 6.78125 L 25.332031 9.878906 L 19.300781 3.839844 C 18.808594 3.347656 18 3.347656 17.503906 3.839844 L 0.371094 20.964844 C -0.125 21.46875 -0.125 22.269531 0.371094 22.773438 C 0.867188 23.269531 1.671875 23.269531 2.167969 22.773438 L 18.398438 6.542969 L 34.628906 22.773438 C 34.878906 23.019531 35.199219 23.144531 35.535156 23.144531 C 35.847656 23.144531 36.179688 23.019531 36.425781 22.773438 C 36.921875 22.269531 36.921875 21.46875 36.425781 20.964844 Z M 36.425781 20.964844 "/>
<path style=" stroke:none;fill-rule:nonzero;fill:rgb(0%,0%,0%);fill-opacity:1;" d="M 32.785156 22.429688 L 19.300781 8.9375 C 19.066406 8.699219 18.742188 8.566406 18.398438 8.566406 C 18.066406 8.566406 17.742188 8.699219 17.496094 8.9375 L 4.011719 22.429688 C 3.832031 22.613281 3.707031 22.839844 3.660156 23.085938 C 3.621094 23.285156 3.605469 23.476562 3.605469 23.667969 L 3.605469 30.257812 C 3.605469 31.949219 4.984375 33.328125 6.683594 33.328125 L 13.265625 33.328125 C 14.121094 33.328125 14.9375 32.964844 15.519531 32.339844 C 16.050781 31.769531 16.335938 31.027344 16.335938 30.257812 L 16.335938 25.417969 C 16.335938 24.246094 17.238281 23.269531 18.398438 23.152344 C 19.558594 23.269531 20.460938 24.246094 20.460938 25.417969 L 20.460938 30.257812 C 20.460938 31.027344 20.757812 31.769531 21.28125 32.339844 C 21.859375 32.964844 22.6875 33.328125 23.535156 33.328125 L 30.125 33.328125 C 31.816406 33.328125 33.195312 31.949219 33.195312 30.257812 L 33.195312 23.675781 C 33.195312 23.476562 33.175781 23.285156 33.136719 23.085938 C 33.089844 22.839844 32.964844 22.613281 32.785156 22.429688 Z M 32.785156 22.429688 "/>
</g>
</svg>
