<?xml version="1.0" encoding="UTF-8"?>
<svg xmlns="http://www.w3.org/2000/svg" xmlns:xlink="http://www.w3.org/1999/xlink" width="37pt" height="37pt" viewBox="0 0 37 37" version="1.1">
<g id="surface1">
<path style=" stroke:none;fill-rule:nonzero;fill:rgb(0%,0%,0%);fill-opacity:1;" d="M 34.847656 22.847656 L 34.847656 9.570312 L 8.691406 4.847656 L 8.691406 3.214844 C 8.691406 1.441406 7.25 0 5.476562 0 L 2.152344 0 L 2.152344 2.179688 L 5.476562 2.179688 C 6.046875 2.179688 6.511719 2.644531 6.511719 3.214844 L 6.511719 23.339844 C 6.511719 25.664062 8.402344 27.554688 10.726562 27.554688 L 11.597656 27.554688 L 11.597656 30.039062 C 11.152344 29.84375 10.660156 29.734375 10.144531 29.734375 C 8.140625 29.734375 6.511719 31.363281 6.511719 33.367188 C 6.511719 35.371094 8.140625 37 10.144531 37 C 12.027344 37 13.578125 35.5625 13.757812 33.730469 L 13.777344 33.730469 L 13.777344 27.554688 L 32.667969 27.554688 L 32.667969 30.039062 C 32.222656 29.84375 31.730469 29.734375 31.214844 29.734375 C 29.210938 29.734375 27.582031 31.363281 27.582031 33.367188 C 27.582031 35.371094 29.210938 37 31.214844 37 C 33.09375 37 34.644531 35.5625 34.828125 33.730469 L 34.847656 33.730469 L 34.847656 25.375 L 10.726562 25.375 C 9.605469 25.375 8.691406 24.464844 8.691406 23.339844 L 8.691406 22.484375 Z M 10.144531 34.820312 C 9.34375 34.820312 8.691406 34.167969 8.691406 33.367188 C 8.691406 32.566406 9.34375 31.914062 10.144531 31.914062 C 10.945312 31.914062 11.597656 32.566406 11.597656 33.367188 C 11.597656 34.167969 10.945312 34.820312 10.144531 34.820312 Z M 31.214844 34.820312 C 30.414062 34.820312 29.761719 34.167969 29.761719 33.367188 C 29.761719 32.566406 30.414062 31.914062 31.214844 31.914062 C 32.015625 31.914062 32.667969 32.566406 32.667969 33.367188 C 32.667969 34.167969 32.015625 34.820312 31.214844 34.820312 Z M 19.589844 20.457031 L 15.230469 20.394531 L 15.230469 8.246094 L 19.589844 9.03125 Z M 21.769531 9.425781 L 25.765625 10.144531 L 25.765625 20.542969 L 21.769531 20.488281 Z M 13.050781 20.367188 L 8.691406 20.304688 L 8.691406 7.0625 L 13.050781 7.851562 Z M 32.667969 20.636719 L 27.945312 20.574219 L 27.945312 10.539062 L 32.667969 11.390625 Z M 32.667969 20.636719 "/>
</g>
</svg>
