<?xml version="1.0" encoding="UTF-8"?>
<svg xmlns="http://www.w3.org/2000/svg" xmlns:xlink="http://www.w3.org/1999/xlink" width="37pt" height="37pt" viewBox="0 0 37 37" version="1.1">
<g id="surface1">
<path style=" stroke:none;fill-rule:nonzero;fill:rgb(0%,0%,0%);fill-opacity:1;" d="M 36.945312 12.25 L 36.921875 12.113281 C 36.917969 12.089844 36.914062 12.070312 36.910156 12.046875 L 34.316406 5.78125 L 34.316406 2.699219 L 2.640625 2.699219 L 2.640625 5.78125 L 0.0898438 12.046875 C 0.0859375 12.074219 0.0820312 12.097656 0.078125 12.121094 L 0.0546875 12.25 C 0.0195312 12.476562 0 12.703125 0 12.9375 C 0 14.613281 0.933594 16.070312 2.3125 16.816406 L 2.3125 34.300781 L 34.6875 34.300781 L 34.6875 16.816406 C 36.0625 16.070312 37 14.613281 37 12.9375 C 37 12.703125 36.980469 12.476562 36.945312 12.25 Z M 35.203125 11.949219 L 29.539062 11.949219 L 28.859375 7.371094 L 33.339844 7.371094 Z M 4.183594 4.238281 L 32.773438 4.238281 L 32.773438 5.78125 L 4.183594 5.78125 Z M 28.210938 13.488281 L 28.292969 14.050781 L 27.839844 14.65625 C 27.292969 15.382812 26.457031 15.800781 25.546875 15.800781 C 24.636719 15.800781 23.800781 15.382812 23.257812 14.65625 L 22.789062 14.035156 L 22.765625 13.488281 Z M 22.6875 11.949219 L 22.464844 7.371094 L 27.300781 7.371094 L 27.980469 11.949219 Z M 21.21875 13.488281 L 21.246094 14.046875 L 20.789062 14.65625 C 20.242188 15.382812 19.40625 15.800781 18.5 15.800781 C 17.589844 15.800781 16.753906 15.382812 16.207031 14.65625 L 15.742188 14.03125 L 15.765625 13.488281 Z M 15.84375 11.949219 L 16.078125 7.371094 L 20.921875 7.371094 L 21.144531 11.949219 Z M 9.027344 11.949219 L 9.699219 7.371094 L 14.535156 7.371094 L 14.300781 11.949219 Z M 14.222656 13.488281 L 14.195312 14.054688 L 13.742188 14.65625 C 13.195312 15.382812 12.359375 15.800781 11.453125 15.800781 C 10.542969 15.800781 9.707031 15.382812 9.160156 14.65625 L 8.714844 14.0625 L 8.800781 13.488281 Z M 3.660156 7.371094 L 8.140625 7.371094 L 7.46875 11.949219 L 1.796875 11.949219 Z M 1.59375 13.488281 L 7.242188 13.488281 L 7.121094 14.089844 L 6.695312 14.65625 C 6.148438 15.382812 5.3125 15.800781 4.402344 15.800781 C 3.015625 15.800781 1.851562 14.804688 1.59375 13.488281 Z M 30.0625 32.761719 L 23.894531 32.761719 L 23.894531 27.363281 L 24.667969 27.363281 C 25.09375 27.363281 25.4375 27.019531 25.4375 26.59375 C 25.4375 26.167969 25.09375 25.824219 24.667969 25.824219 L 23.894531 25.824219 L 23.894531 20.425781 L 30.0625 20.425781 Z M 33.144531 32.761719 L 31.605469 32.761719 L 31.605469 18.886719 L 22.355469 18.886719 L 22.355469 32.761719 L 3.855469 32.761719 L 3.855469 17.308594 C 4.035156 17.332031 4.21875 17.34375 4.402344 17.34375 C 5.84375 17.34375 7.125 16.652344 7.929688 15.582031 C 8.730469 16.652344 10.011719 17.34375 11.453125 17.34375 C 12.894531 17.34375 14.171875 16.652344 14.976562 15.582031 C 15.777344 16.652344 17.058594 17.34375 18.5 17.34375 C 19.941406 17.34375 21.21875 16.652344 22.023438 15.582031 C 22.828125 16.652344 24.105469 17.34375 25.546875 17.34375 C 26.988281 17.34375 28.265625 16.652344 29.070312 15.582031 C 29.875 16.652344 31.152344 17.34375 32.59375 17.34375 C 32.78125 17.34375 32.964844 17.332031 33.144531 17.308594 Z M 32.59375 15.800781 C 31.6875 15.800781 30.851562 15.382812 30.304688 14.65625 L 29.855469 14.0625 L 29.769531 13.488281 L 35.402344 13.488281 C 35.144531 14.804688 33.984375 15.800781 32.59375 15.800781 Z M 32.59375 15.800781 "/>
<path style=" stroke:none;fill-rule:nonzero;fill:rgb(0%,0%,0%);fill-opacity:1;" d="M 5.394531 18.886719 L 5.394531 29.675781 L 20.8125 29.675781 L 20.8125 18.886719 Z M 19.269531 28.136719 L 6.9375 28.136719 L 6.9375 20.425781 L 19.269531 20.425781 Z M 19.269531 28.136719 "/>
<path style=" stroke:none;fill-rule:nonzero;fill:rgb(0%,0%,0%);fill-opacity:1;" d="M 17.722656 24.28125 C 17.507812 24.28125 17.316406 24.367188 17.179688 24.507812 L 15.636719 26.050781 C 15.496094 26.1875 15.410156 26.382812 15.410156 26.59375 C 15.410156 27.019531 15.757812 27.363281 16.179688 27.363281 C 16.394531 27.363281 16.585938 27.277344 16.726562 27.136719 L 18.265625 25.597656 C 18.40625 25.457031 18.492188 25.265625 18.492188 25.050781 C 18.492188 24.628906 18.148438 24.28125 17.722656 24.28125 Z M 17.722656 24.28125 "/>
<path style=" stroke:none;fill-rule:nonzero;fill:rgb(0%,0%,0%);fill-opacity:1;" d="M 17.722656 21.199219 C 17.507812 21.199219 17.316406 21.285156 17.179688 21.425781 L 12.554688 26.046875 C 12.414062 26.1875 12.328125 26.382812 12.328125 26.59375 C 12.328125 27.019531 12.671875 27.363281 13.097656 27.363281 C 13.308594 27.363281 13.503906 27.277344 13.640625 27.136719 L 18.265625 22.515625 C 18.40625 22.375 18.492188 22.179688 18.492188 21.96875 C 18.492188 21.542969 18.148438 21.199219 17.722656 21.199219 Z M 17.722656 21.199219 "/>
</g>
</svg>
