<svg width="0" height="0" class="hidden"><symbol xmlns="http://www.w3.org/2000/svg" viewBox="0 0 37 37" id="home-button-for-interface"><path d="M36.426 20.965l-8.547-8.547V6.781a1.275 1.275 0 10-2.547 0V9.88l-6.031-6.04a1.278 1.278 0 00-1.797 0L.37 20.966a1.285 1.285 0 000 1.808 1.27 1.27 0 001.797 0l16.23-16.23 16.23 16.23a1.277 1.277 0 001.798 0 1.285 1.285 0 000-1.808zm0 0"></path><path d="M32.785 22.43L19.301 8.938a1.26 1.26 0 00-.903-.372c-.332 0-.656.133-.902.371L4.012 22.43c-.18.183-.305.41-.352.656-.039.2-.055.39-.055.582v6.59a3.077 3.077 0 003.079 3.07h6.582a3.09 3.09 0 002.254-.988 3.05 3.05 0 00.816-2.082v-4.84a2.29 2.29 0 012.062-2.266 2.29 2.29 0 012.063 2.266v4.84a3.086 3.086 0 003.074 3.07h6.59a3.076 3.076 0 003.07-3.07v-6.582c0-.2-.02-.39-.058-.59a1.288 1.288 0 00-.352-.656zm0 0"></path></symbol><symbol xmlns="http://www.w3.org/2000/svg" viewBox="0 0 37 37" id="shop"><path d="M36.945 12.25l-.023-.137-.012-.066-2.594-6.266V2.7H2.641v3.082L.09 12.047l-.012.074-.023.129a4.404 4.404 0 002.258 4.566v17.485h32.374V16.816a4.412 4.412 0 002.258-4.566zm-1.742-.3H29.54l-.68-4.579h4.48zM4.183 4.237h28.59V5.78H4.183zm24.028 9.25l.082.563-.453.605a2.847 2.847 0 01-2.293 1.145c-.91 0-1.746-.418-2.29-1.145l-.468-.62-.023-.548zm-5.523-1.539l-.223-4.578H27.3l.68 4.578zm-1.47 1.54l.028.558-.457.61A2.845 2.845 0 0118.5 15.8c-.91 0-1.746-.418-2.293-1.145l-.465-.625.024-.543zm-5.374-1.54l.234-4.578h4.844l.223 4.578zm-6.817 0L9.7 7.371h4.836l-.234 4.578zm5.196 1.54l-.028.566-.453.601a2.845 2.845 0 01-2.289 1.145c-.91 0-1.746-.418-2.293-1.145l-.445-.594.086-.574zM3.66 7.37h4.48l-.67 4.58H1.797zm-2.066 6.117h5.648l-.12.602-.427.566A2.847 2.847 0 014.402 15.8a2.87 2.87 0 01-2.808-2.313zm28.468 19.274h-6.167v-5.399h.773a.769.769 0 100-1.539h-.773v-5.398h6.168zm3.083 0h-1.54V18.887h-9.25v13.875h-18.5V17.309a4.404 4.404 0 004.074-1.727 4.39 4.39 0 003.524 1.762 4.396 4.396 0 003.524-1.762 4.39 4.39 0 003.523 1.762 4.396 4.396 0 003.523-1.762 4.396 4.396 0 003.524 1.762 4.396 4.396 0 003.523-1.762 4.396 4.396 0 004.075 1.727zM32.594 15.8a2.845 2.845 0 01-2.29-1.145l-.449-.594-.085-.574h5.632a2.866 2.866 0 01-2.808 2.313zm0 0"></path><path d="M5.395 18.887v10.789h15.418v-10.79zm13.875 9.25H6.938v-7.711H19.27zm0 0"></path><path d="M17.723 24.281a.751.751 0 00-.543.227l-1.543 1.543a.758.758 0 00-.227.543.771.771 0 001.317.543l1.539-1.54a.771.771 0 00-.543-1.316zm0-3.081a.751.751 0 00-.543.226l-4.625 4.62a.769.769 0 101.086 1.09l4.625-4.62a.769.769 0 00-.543-1.316zm0 0"></path></symbol><symbol xmlns="http://www.w3.org/2000/svg" viewBox="0 0 37 37" id="shopping-cart"><path d="M34.848 22.848V9.57L8.69 4.848V3.215A3.217 3.217 0 005.477 0H2.152v2.18h3.325c.57 0 1.035.465 1.035 1.035V23.34a4.22 4.22 0 004.215 4.215h.87v2.484a3.612 3.612 0 00-1.452-.305 3.636 3.636 0 00-3.633 3.633A3.636 3.636 0 0010.145 37a3.634 3.634 0 003.613-3.27h.02v-6.175h18.89v2.484a3.612 3.612 0 00-1.453-.305 3.636 3.636 0 00-3.633 3.633A3.636 3.636 0 0031.215 37a3.64 3.64 0 003.613-3.27h.02v-8.355H10.727A2.036 2.036 0 018.69 23.34v-.856zM10.145 34.82a1.456 1.456 0 01-1.454-1.453c0-.8.653-1.453 1.454-1.453.8 0 1.453.652 1.453 1.453s-.653 1.453-1.453 1.453zm21.07 0c-.8 0-1.453-.652-1.453-1.453 0-.8.652-1.453 1.453-1.453.8 0 1.453.652 1.453 1.453s-.652 1.453-1.453 1.453zM19.59 20.457l-4.36-.062V8.246l4.36.785zm2.18-11.031l3.996.719v10.398l-3.996-.055zm-8.72 10.941l-4.359-.062V7.063l4.36.789zm19.618.27l-4.723-.063V10.54l4.723.852zm0 0"></path></symbol></svg>